<svg xmlns="http://www.w3.org/2000/svg" width="720" height="420" viewBox="0 0 720 420" font-family="ui-sans-serif,system-ui,Segoe UI,Roboto,Helvetica,Arial">
<rect width="720" height="420" fill="#ffffff"/>
<text x="360" y="30" text-anchor="middle" font-size="18" font-weight="700" fill="#1a1a1a">Peak queue depth vs concurrent users</text>
<line x1="78" y1="360" x2="570" y2="360" stroke="#eee" stroke-width="1"/>
<text x="68" y="364" text-anchor="end" font-size="11" fill="#666">0</text>
<line x1="78" y1="299.2" x2="570" y2="299.2" stroke="#eee" stroke-width="1"/>
<text x="68" y="303.2" text-anchor="end" font-size="11" fill="#666">28</text>
<line x1="78" y1="238.39999999999998" x2="570" y2="238.39999999999998" stroke="#eee" stroke-width="1"/>
<text x="68" y="242.39999999999998" text-anchor="end" font-size="11" fill="#666">55</text>
<line x1="78" y1="177.6" x2="570" y2="177.6" stroke="#eee" stroke-width="1"/>
<text x="68" y="181.6" text-anchor="end" font-size="11" fill="#666">83</text>
<line x1="78" y1="116.79999999999998" x2="570" y2="116.79999999999998" stroke="#eee" stroke-width="1"/>
<text x="68" y="120.79999999999998" text-anchor="end" font-size="11" fill="#666">110</text>
<line x1="78" y1="56" x2="570" y2="56" stroke="#eee" stroke-width="1"/>
<text x="68" y="60" text-anchor="end" font-size="11" fill="#666">138</text>
<line x1="78" y1="360" x2="78" y2="365" stroke="#999"/>
<text x="78" y="380" text-anchor="middle" font-size="12" fill="#444">10</text>
<line x1="296.66666666666663" y1="360" x2="296.66666666666663" y2="365" stroke="#999"/>
<text x="296.66666666666663" y="380" text-anchor="middle" font-size="12" fill="#444">50</text>
<line x1="570" y1="360" x2="570" y2="365" stroke="#999"/>
<text x="570" y="380" text-anchor="middle" font-size="12" fill="#444">100</text>
<line x1="78" y1="56" x2="78" y2="360" stroke="#333"/>
<line x1="78" y1="360" x2="570" y2="360" stroke="#333"/>
<text x="324" y="405" text-anchor="middle" font-size="13" fill="#333">concurrent users</text>
<text transform="translate(20,208) rotate(-90)" text-anchor="middle" font-size="13" fill="#333">peak messages in queue</text>
<path d="M78.0,333.5 L296.7,225.1 L570.0,83.6" fill="none" stroke="#e4572e" stroke-width="2.5"/>
<circle cx="78.0" cy="333.5" r="4" fill="#e4572e"/>
<circle cx="296.7" cy="225.1" r="4" fill="#e4572e"/>
<circle cx="570.0" cy="83.6" r="4" fill="#e4572e"/>
<line x1="586" y1="64" x2="610" y2="64" stroke="#e4572e" stroke-width="3"/>
<text x="616" y="68" font-size="12" fill="#333">1 worker peak</text>
<path d="M78.0,335.7 L296.7,236.2 L570.0,85.8" fill="none" stroke="#2e86ab" stroke-width="2.5"/>
<circle cx="78.0" cy="335.7" r="4" fill="#2e86ab"/>
<circle cx="296.7" cy="236.2" r="4" fill="#2e86ab"/>
<circle cx="570.0" cy="85.8" r="4" fill="#2e86ab"/>
<line x1="586" y1="86" x2="610" y2="86" stroke="#2e86ab" stroke-width="3"/>
<text x="616" y="90" font-size="12" fill="#333">3 workers peak</text>
</svg>